<svg width="16" height="16" viewBox="0 0 16 16" fill="none" xmlns="http://www.w3.org/2000/svg">
<path d="M8 0.999268V3.99927M12 7.99927H15M1 7.99927H4M8 11.9993V14.9993M13.5 7.99927C13.5 9.45796 12.9205 10.8569 11.8891 11.8884C10.8576 12.9198 9.45869 13.4993 8 13.4993C6.54131 13.4993 5.14236 12.9198 4.11091 11.8884C3.07946 10.8569 2.5 9.45796 2.5 7.99927C2.5 6.54058 3.07946 5.14163 4.11091 4.11018C5.14236 3.07873 6.54131 2.49927 8 2.49927C9.45869 2.49927 10.8576 3.07873 11.8891 4.11018C12.9205 5.14163 13.5 6.54058 13.5 7.99927ZM8.5 7.99927C8.5 8.13188 8.44732 8.25905 8.35355 8.35282C8.25979 8.44659 8.13261 8.49927 8 8.49927C7.86739 8.49927 7.74021 8.44659 7.64645 8.35282C7.55268 8.25905 7.5 8.13188 7.5 7.99927C7.5 7.86666 7.55268 7.73948 7.64645 7.64571C7.74021 7.55195 7.86739 7.49927 8 7.49927C8.13261 7.49927 8.25979 7.55195 8.35355 7.64571C8.44732 7.73948 8.5 7.86666 8.5 7.99927Z" stroke="#10B981"/>
</svg>
