<svg width="16" height="16" viewBox="0 0 16 16" fill="none" xmlns="http://www.w3.org/2000/svg">
<path d="M8.00586 2.75C8.42007 2.75 8.75586 3.08579 8.75586 3.5V7.25H12.5059C12.9201 7.25 13.2559 7.58579 13.2559 8C13.2559 8.41421 12.9201 8.75 12.5059 8.75H8.75586V12.5C8.75586 12.9142 8.42007 13.25 8.00586 13.25C7.59165 13.25 7.25586 12.9142 7.25586 12.5V8.75H3.50586C3.09165 8.75 2.75586 8.41421 2.75586 8C2.75586 7.58579 3.09165 7.25 3.50586 7.25H7.25586V3.5C7.25586 3.08579 7.59165 2.75 8.00586 2.75Z" fill="currentColor"/>
</svg>
