<svg width="24" height="24" viewBox="0 0 24 24" fill="none" xmlns="http://www.w3.org/2000/svg">
<g clip-path="url(#clip0_3354_2394)">
<path d="M18 18L14.9626 14.9626M14.9626 14.9626C15.4501 14.475 15.8368 13.8963 16.1007 13.2593C16.3645 12.6223 16.5003 11.9396 16.5003 11.2502C16.5003 10.5607 16.3645 9.87798 16.1007 9.24101C15.8368 8.60403 15.4501 8.02526 14.9626 7.53773C14.475 7.05021 13.8963 6.66349 13.2593 6.39964C12.6223 6.1358 11.9396 6 11.2502 6C10.5607 6 9.87798 6.1358 9.24101 6.39964C8.60403 6.66349 8.02526 7.05021 7.53773 7.53773C6.55314 8.52233 6 9.85772 6 11.2502C6 12.6426 6.55314 13.978 7.53773 14.9626C8.52233 15.9472 9.85772 16.5003 11.2502 16.5003C12.6426 16.5003 13.978 15.9472 14.9626 14.9626Z" stroke="#6B7280" stroke-width="1.5" stroke-linecap="round" stroke-linejoin="round"/>
</g>
<defs>
<clipPath id="clip0_3354_2394">
<rect width="24.0016" height="24.0016" fill="white"/>
</clipPath>
</defs>
</svg>
