<svg width="16" height="16" viewBox="0 0 16 16" fill="none" xmlns="http://www.w3.org/2000/svg">
<path d="M11.4698 3.46877C11.7627 3.17597 12.2375 3.17591 12.5303 3.46877C12.8232 3.76163 12.8231 4.23642 12.5303 4.52932L9.06061 7.99904L12.5303 11.4688C12.8232 11.7616 12.8231 12.2364 12.5303 12.5293C12.2375 12.8222 11.7627 12.8222 11.4698 12.5293L8.00007 9.05959L4.53034 12.5293C4.23745 12.8222 3.76269 12.8222 3.46979 12.5293C3.1769 12.2364 3.1769 11.7617 3.46979 11.4688L6.93952 7.99904L3.46979 4.52932C3.1769 4.23642 3.1769 3.76166 3.46979 3.46877C3.76269 3.17597 4.23748 3.17591 4.53034 3.46877L8.00007 6.9385L11.4698 3.46877Z" fill="#D1D5DB"/>
</svg>
