<svg width="24" height="24" viewBox="0 0 24 24" fill="none" xmlns="http://www.w3.org/2000/svg">
<g clip-path="url(#clip0_3314_11427)">
<rect width="24.0016" height="24.0016" transform="translate(0 0.00146484)" fill="#E5E7EB"/>
<rect opacity="0.6" x="3" y="3.00146" width="18" height="18" rx="2" stroke="#A5A5A5" stroke-width="0.04"/>
<rect opacity="0.6" x="2" y="2.00146" width="20" height="20" rx="10" stroke="#A5A5A5" stroke-width="0.04"/>
<rect opacity="0.6" x="7" y="7.00146" width="10" height="10" rx="5" stroke="#A5A5A5" stroke-width="0.04"/>
<rect opacity="0.6" x="2" y="4.00146" width="20" height="16" rx="2" stroke="#A5A5A5" stroke-width="0.04"/>
<rect opacity="0.6" x="4" y="22.0015" width="20" height="16" rx="2" transform="rotate(-90 4 22.0015)" stroke="#A5A5A5" stroke-width="0.04"/>
<path opacity="0.6" d="M24 0.00146484L0 24.0015" stroke="#A5A5A5" stroke-width="0.04"/>
<path opacity="0.6" d="M0 0.00146484L24 24.0015" stroke="#A5A5A5" stroke-width="0.04"/>
<path d="M3.99243 17.9815V9.71046C3.99243 6.07646 3.99243 4.26046 5.16443 3.13046C6.33643 2.00046 8.22143 2.00146 11.9924 2.00146C15.7634 2.00146 17.6494 2.00146 18.8204 3.13046C19.9924 4.25846 19.9924 6.07547 19.9924 9.70947V17.9825C19.9924 20.2885 19.9924 21.4415 19.2194 21.8535C17.7224 22.6535 14.9154 19.9865 13.5824 19.1835C12.8094 18.7185 12.4224 18.4855 11.9924 18.4855C11.5624 18.4855 11.1754 18.7185 10.4024 19.1835C9.06943 19.9865 6.26243 22.6535 4.76543 21.8535C3.99243 21.4415 3.99243 20.2885 3.99243 17.9825" fill="#34D399"/>
<path d="M3.99243 17.9815V9.71046C3.99243 6.07646 3.99243 4.26046 5.16443 3.13046C6.33643 2.00046 8.22143 2.00146 11.9924 2.00146C15.7634 2.00146 17.6494 2.00146 18.8204 3.13046C19.9924 4.25846 19.9924 6.07546 19.9924 9.70947V17.9825C19.9924 20.2885 19.9924 21.4415 19.2194 21.8535C17.7224 22.6535 14.9154 19.9865 13.5824 19.1835C12.8094 18.7185 12.4224 18.4855 11.9924 18.4855C11.5624 18.4855 11.1754 18.7185 10.4024 19.1835C9.06943 19.9865 6.26243 22.6535 4.76543 21.8535C3.99243 21.4415 3.99243 20.2885 3.99243 17.9825" stroke="#34D399" stroke-width="1.5" stroke-linecap="round" stroke-linejoin="round"/>
</g>
<defs>
<clipPath id="clip0_3314_11427">
<rect width="24.0016" height="24.0016" fill="white" transform="translate(0 0.00146484)"/>
</clipPath>
</defs>
</svg>
