<svg width="344" height="48" viewBox="0 0 344 48" fill="none" xmlns="http://www.w3.org/2000/svg">
<rect width="344" height="48" rx="8" fill="#34D399"/>
<path d="M134.958 18.724H136.484V19.536C136.484 20.3573 136.349 21.1367 136.078 21.874C135.817 22.6113 135.415 23.26 134.874 23.82C134.333 24.3707 133.647 24.7813 132.816 25.052L131.892 23.582C132.601 23.3487 133.18 23.022 133.628 22.602C134.085 22.1727 134.421 21.692 134.636 21.16C134.851 20.6187 134.958 20.0773 134.958 19.536V18.724ZM135.336 18.724H136.834V19.536C136.834 20.04 136.937 20.53 137.142 21.006C137.347 21.4727 137.665 21.8927 138.094 22.266C138.533 22.6393 139.102 22.9333 139.802 23.148L138.906 24.604C138.085 24.3613 137.408 23.988 136.876 23.484C136.353 22.9707 135.966 22.378 135.714 21.706C135.462 21.0247 135.336 20.3013 135.336 19.536V18.724ZM132.368 18.136H139.382V19.62H132.368V18.136ZM140.404 17.282H142.266V24.968H140.404V17.282ZM141.762 20.25H143.988V21.776H141.762V20.25ZM138.038 25.192C138.943 25.192 139.723 25.2947 140.376 25.5C141.029 25.696 141.533 25.9807 141.888 26.354C142.243 26.7273 142.42 27.18 142.42 27.712C142.42 28.244 142.243 28.6967 141.888 29.07C141.533 29.4527 141.029 29.742 140.376 29.938C139.723 30.1433 138.943 30.246 138.038 30.246C137.142 30.246 136.363 30.1433 135.7 29.938C135.047 29.742 134.538 29.4527 134.174 29.07C133.819 28.6967 133.642 28.244 133.642 27.712C133.642 27.18 133.819 26.7273 134.174 26.354C134.538 25.9807 135.047 25.696 135.7 25.5C136.363 25.2947 137.142 25.192 138.038 25.192ZM138.038 26.648C137.487 26.648 137.025 26.6853 136.652 26.76C136.279 26.8347 135.994 26.9513 135.798 27.11C135.602 27.2687 135.504 27.4693 135.504 27.712C135.504 27.964 135.602 28.1693 135.798 28.328C135.994 28.4867 136.279 28.608 136.652 28.692C137.025 28.7667 137.487 28.804 138.038 28.804C138.589 28.804 139.051 28.7667 139.424 28.692C139.807 28.608 140.091 28.4867 140.278 28.328C140.474 28.1693 140.572 27.964 140.572 27.712C140.572 27.4693 140.474 27.2687 140.278 27.11C140.091 26.9513 139.807 26.8347 139.424 26.76C139.051 26.6853 138.589 26.648 138.038 26.648ZM153.227 17.282H155.103V30.246H153.227V17.282ZM154.697 22.098H156.979V23.638H154.697V22.098ZM145.345 18.29H147.193V21.454H149.797V18.29H151.645V27.236H145.345V18.29ZM147.193 22.896V25.752H149.797V22.896H147.193ZM159.176 18.024H167.296V19.494H159.176V18.024ZM157.832 23.54H169.564V25.052H157.832V23.54ZM162.69 24.604H164.566V30.246H162.69V24.604ZM166.344 18.024H168.178V19.172C168.178 19.6387 168.168 20.1333 168.15 20.656C168.14 21.1787 168.103 21.7527 168.038 22.378C167.972 22.994 167.851 23.6847 167.674 24.45L165.854 24.226C166.096 23.1527 166.236 22.2147 166.274 21.412C166.32 20.6 166.344 19.8533 166.344 19.172V18.024ZM179.685 17.268H181.533V30.232H179.685V17.268ZM171.383 18.5H173.245V26.564H171.383V18.5ZM171.383 25.458H172.531C173.483 25.458 174.477 25.4207 175.513 25.346C176.549 25.262 177.603 25.1127 178.677 24.898L178.873 26.452C177.771 26.6853 176.684 26.844 175.611 26.928C174.547 27.0027 173.52 27.04 172.531 27.04H171.383V25.458ZM191.976 25.57H193.838V30.26H191.976V25.57ZM187.062 25.038H198.794V26.55H187.062V25.038ZM191.962 19.606H193.6V19.914C193.6 20.3433 193.526 20.7633 193.376 21.174C193.236 21.5753 193.022 21.9533 192.732 22.308C192.443 22.6533 192.084 22.9707 191.654 23.26C191.225 23.54 190.73 23.778 190.17 23.974C189.61 24.1607 188.99 24.296 188.308 24.38L187.65 22.91C188.238 22.8447 188.761 22.7373 189.218 22.588C189.685 22.4387 190.091 22.2613 190.436 22.056C190.782 21.8507 191.066 21.6313 191.29 21.398C191.524 21.1553 191.692 20.908 191.794 20.656C191.906 20.3947 191.962 20.1473 191.962 19.914V19.606ZM192.214 19.606H193.838V19.914C193.838 20.138 193.894 20.3807 194.006 20.642C194.128 20.894 194.3 21.1413 194.524 21.384C194.748 21.6173 195.033 21.8413 195.378 22.056C195.724 22.2613 196.125 22.4387 196.582 22.588C197.049 22.7373 197.572 22.8447 198.15 22.91L197.506 24.38C196.816 24.3053 196.19 24.17 195.63 23.974C195.08 23.7687 194.59 23.526 194.16 23.246C193.731 22.966 193.372 22.6487 193.082 22.294C192.793 21.93 192.574 21.5473 192.424 21.146C192.284 20.7447 192.214 20.334 192.214 19.914V19.606ZM188.112 18.752H197.716V20.222H188.112V18.752ZM191.976 17.31H193.838V19.256H191.976V17.31ZM208.215 17.254H210.091V30.218H208.215V17.254ZM209.615 22.224H211.897V23.75H209.615V22.224ZM204.813 18.598H206.647C206.647 19.8953 206.461 21.1227 206.087 22.28C205.723 23.4373 205.117 24.5013 204.267 25.472C203.427 26.4333 202.289 27.2733 200.851 27.992L199.801 26.578C200.94 25.99 201.878 25.3273 202.615 24.59C203.362 23.8527 203.913 23.0173 204.267 22.084C204.631 21.1413 204.813 20.0913 204.813 18.934V18.598ZM200.515 18.598H205.779V20.096H200.515V18.598Z" fill="white"/>
</svg>
