<svg width="15" height="16" viewBox="0 0 15 16" fill="none" xmlns="http://www.w3.org/2000/svg">
<path d="M5.74988 9.99927C5.74988 8.11393 5.74988 7.1706 6.33588 6.58527C6.92121 5.99927 7.86454 5.99927 9.74988 5.99927H10.4165C12.3019 5.99927 13.2452 5.99927 13.8305 6.58527C14.4165 7.1706 14.4165 8.11393 14.4165 9.99927V10.6659C14.4165 12.5513 14.4165 13.4946 13.8305 14.0799C13.2452 14.6659 12.3019 14.6659 10.4165 14.6659H9.74988C7.86454 14.6659 6.92121 14.6659 6.33588 14.0799C5.74988 13.4946 5.74988 12.5513 5.74988 10.6659V9.99927Z" stroke="#374151" stroke-linecap="round" stroke-linejoin="round"/>
<path d="M11.0833 5.99931C11.0813 4.02798 11.0519 3.00664 10.4779 2.30731C10.3672 2.17241 10.2435 2.0487 10.1086 1.93797C9.36992 1.33264 8.27525 1.33264 6.08325 1.33264C3.89192 1.33264 2.79592 1.33264 2.05792 1.93797C1.92302 2.0487 1.79931 2.17241 1.68859 2.30731C1.08325 3.04597 1.08325 4.14064 1.08325 6.33264C1.08325 8.52398 1.08325 9.61998 1.68859 10.358C1.79931 10.4929 1.92302 10.6166 2.05792 10.7273C2.75792 11.3006 3.77792 11.3313 5.74992 11.3326" stroke="#374151" stroke-linecap="round" stroke-linejoin="round"/>
</svg>
