<svg width="17" height="16" viewBox="0 0 17 16" fill="none" xmlns="http://www.w3.org/2000/svg">
<g clip-path="url(#clip0_3320_14384)">
<rect width="16" height="16" transform="translate(0.25)" fill="#E5E7EB"/>
<rect opacity="0.6" x="2.24988" y="1.99988" width="11.9992" height="11.9992" rx="1.33325" stroke="#A5A5A5" stroke-width="0.0266649"/>
<rect opacity="0.6" x="1.58325" y="1.33325" width="13.3325" height="13.3325" rx="6.66623" stroke="#A5A5A5" stroke-width="0.0266649"/>
<rect opacity="0.6" x="4.91638" y="4.66638" width="6.66623" height="6.66623" rx="3.33312" stroke="#A5A5A5" stroke-width="0.0266649"/>
<rect opacity="0.6" x="1.58325" y="2.6665" width="13.3325" height="10.666" rx="1.33325" stroke="#A5A5A5" stroke-width="0.0266649"/>
<rect opacity="0.6" x="2.9165" y="14.6658" width="13.3325" height="10.666" rx="1.33325" transform="rotate(-90 2.9165 14.6658)" stroke="#A5A5A5" stroke-width="0.0266649"/>
<path opacity="0.6" d="M16.249 0L0.25 15.999" stroke="#A5A5A5" stroke-width="0.0266649"/>
<path opacity="0.6" d="M0.250064 0L16.249 15.999" stroke="#A5A5A5" stroke-width="0.0266649"/>
<path d="M10.2499 4.33259V13.6659M5.58325 2.33259V11.6659M3.75192 2.79659L2.93392 3.27125C2.27459 3.65325 1.94525 3.84459 1.76459 4.16259C1.58325 4.48059 1.58325 4.86725 1.58325 5.64192V11.0846C1.58325 12.1019 1.58325 12.6113 1.81125 12.8939C1.96325 13.0819 2.17592 13.2086 2.41125 13.2506C2.76459 13.3139 3.19792 13.0626 4.06325 12.5606C4.65125 12.2199 5.21659 11.8653 5.91992 11.9619C6.23992 12.0053 6.54459 12.1573 7.15525 12.4606L9.69725 13.7246C10.2473 13.9979 10.2526 13.9993 10.8639 13.9993H12.2499C13.5073 13.9993 14.1353 13.9993 14.5259 13.5999C14.9166 13.2013 14.9166 12.5586 14.9166 11.2733V6.77992C14.9166 5.49525 14.9166 4.85325 14.5259 4.45325C14.1353 4.05459 13.5073 4.05459 12.2499 4.05459H10.8639C10.2526 4.05459 10.2473 4.05325 9.69725 3.77992L7.47659 2.67592C6.54925 2.21459 6.08525 1.98392 5.59125 1.99925C5.09725 2.01459 4.64992 2.27592 3.75192 2.79659Z" stroke="#374151" stroke-linecap="round" stroke-linejoin="round"/>
</g>
<defs>
<clipPath id="clip0_3320_14384">
<rect width="16" height="16" fill="white" transform="translate(0.25)"/>
</clipPath>
</defs>
</svg>
