<svg width="16" height="16" viewBox="0 0 16 16" fill="none" xmlns="http://www.w3.org/2000/svg">
<g clip-path="url(#clip0_3320_14365)">
<rect width="16" height="16" fill="#E5E7EB"/>
<rect opacity="0.6" x="1.99988" y="1.99988" width="11.9992" height="11.9992" rx="1.33325" stroke="#A5A5A5" stroke-width="0.0266649"/>
<rect opacity="0.6" x="1.33325" y="1.33325" width="13.3325" height="13.3325" rx="6.66623" stroke="#A5A5A5" stroke-width="0.0266649"/>
<rect opacity="0.6" x="4.66638" y="4.66638" width="6.66623" height="6.66623" rx="3.33312" stroke="#A5A5A5" stroke-width="0.0266649"/>
<rect opacity="0.6" x="1.33325" y="2.6665" width="13.3325" height="10.666" rx="1.33325" stroke="#A5A5A5" stroke-width="0.0266649"/>
<rect opacity="0.6" x="2.6665" y="14.6658" width="13.3325" height="10.666" rx="1.33325" transform="rotate(-90 2.6665 14.6658)" stroke="#A5A5A5" stroke-width="0.0266649"/>
<path opacity="0.6" d="M15.999 0L0 15.999" stroke="#A5A5A5" stroke-width="0.0266649"/>
<path opacity="0.6" d="M6.4373e-05 0L15.999 15.999" stroke="#A5A5A5" stroke-width="0.0266649"/>
<path d="M6.10595 3.80727L5.83728 3.20327C5.66195 2.8086 5.57395 2.61127 5.44262 2.45993C5.27831 2.27041 5.06388 2.13107 4.82395 2.05793C4.63262 1.99927 4.41662 1.99927 3.98395 1.99927C3.35195 1.99927 3.03595 1.99927 2.77062 2.1206C2.4433 2.27963 2.18994 2.55878 2.06328 2.89993C1.96795 3.17527 1.99528 3.4586 2.04995 4.02593C2.63217 10.0593 5.94017 13.367 11.9739 13.9493C12.5406 14.0039 12.8239 14.0313 13.0999 13.9359C13.4407 13.8093 13.7196 13.5562 13.8786 13.2293C14 12.9633 13.9999 12.6473 13.9999 12.0153C13.9999 11.5826 13.9999 11.3666 13.9413 11.1753C13.8681 10.9353 13.7288 10.7209 13.5393 10.5566C13.3886 10.4253 13.1906 10.3379 12.7959 10.1619L12.1919 9.89393C11.7639 9.70393 11.5506 9.6086 11.3333 9.58793C11.1252 9.56796 10.9153 9.59719 10.7206 9.67327C10.5173 9.7526 10.3379 9.90193 9.97795 10.2019C9.61995 10.4999 9.44128 10.6486 9.22262 10.7286C9.01272 10.8012 8.78889 10.8242 8.56862 10.7959C8.33795 10.7626 8.16195 10.6679 7.80862 10.4793C6.71195 9.8926 6.10662 9.28793 5.51995 8.1906C5.33128 7.83727 5.23728 7.66127 5.20328 7.4306C5.17488 7.2106 5.1977 6.987 5.26995 6.77727C5.34995 6.55793 5.49928 6.37927 5.79728 6.02127C6.09728 5.66127 6.24728 5.48193 6.32595 5.2786C6.40195 5.08393 6.43128 4.87393 6.41128 4.66593C6.39128 4.44927 6.29595 4.23527 6.10528 3.80727" stroke="#374151" stroke-linecap="round" stroke-linejoin="round"/>
</g>
<defs>
<clipPath id="clip0_3320_14365">
<rect width="16" height="16" fill="white"/>
</clipPath>
</defs>
</svg>
