<svg width="24" height="24" viewBox="0 0 24 24" fill="none" xmlns="http://www.w3.org/2000/svg">
<g clip-path="url(#clip0_3320_14339)">
<rect width="24.0016" height="24.0016" transform="translate(-0.00158691 -0.000732422)" fill="#E5E7EB"/>
<rect opacity="0.6" x="2.99841" y="2.99927" width="18" height="18" rx="2" stroke="#A5A5A5" stroke-width="0.04"/>
<rect opacity="0.6" x="1.99841" y="1.99927" width="20" height="20" rx="10" stroke="#A5A5A5" stroke-width="0.04"/>
<rect opacity="0.6" x="6.99841" y="6.99927" width="10" height="10" rx="5" stroke="#A5A5A5" stroke-width="0.04"/>
<rect opacity="0.6" x="1.99841" y="3.99927" width="20" height="16" rx="2" stroke="#A5A5A5" stroke-width="0.04"/>
<rect opacity="0.6" x="3.99841" y="21.9993" width="20" height="16" rx="2" transform="rotate(-90 3.99841 21.9993)" stroke="#A5A5A5" stroke-width="0.04"/>
<path opacity="0.6" d="M23.9984 -0.000732422L-0.00158691 23.9993" stroke="#A5A5A5" stroke-width="0.04"/>
<path opacity="0.6" d="M-0.00158691 -0.000732422L23.9984 23.9993" stroke="#A5A5A5" stroke-width="0.04"/>
<path d="M3.99084 17.9793V9.70827C3.99084 6.07427 3.99084 4.25827 5.16284 3.12827C6.33484 1.99827 8.21984 1.99927 11.9908 1.99927C15.7618 1.99927 17.6478 1.99927 18.8188 3.12827C19.9908 4.25627 19.9908 6.07327 19.9908 9.70727V17.9803C19.9908 20.2863 19.9908 21.4393 19.2178 21.8513C17.7208 22.6513 14.9138 19.9843 13.5808 19.1813C12.8078 18.7163 12.4208 18.4833 11.9908 18.4833C11.5608 18.4833 11.1738 18.7163 10.4008 19.1813C9.06784 19.9843 6.26084 22.6513 4.76384 21.8513C3.99084 21.4393 3.99084 20.2863 3.99084 17.9803" fill="#34D399"/>
<path d="M3.99084 17.9793V9.70827C3.99084 6.07427 3.99084 4.25827 5.16284 3.12827C6.33484 1.99827 8.21984 1.99927 11.9908 1.99927C15.7618 1.99927 17.6478 1.99927 18.8188 3.12827C19.9908 4.25627 19.9908 6.07327 19.9908 9.70727V17.9803C19.9908 20.2863 19.9908 21.4393 19.2178 21.8513C17.7208 22.6513 14.9138 19.9843 13.5808 19.1813C12.8078 18.7163 12.4208 18.4833 11.9908 18.4833C11.5608 18.4833 11.1738 18.7163 10.4008 19.1813C9.06784 19.9843 6.26084 22.6513 4.76384 21.8513C3.99084 21.4393 3.99084 20.2863 3.99084 17.9803" stroke="#34D399" stroke-width="1.5" stroke-linecap="round" stroke-linejoin="round"/>
</g>
<defs>
<clipPath id="clip0_3320_14339">
<rect width="24.0016" height="24.0016" fill="white" transform="translate(-0.00158691 -0.000732422)"/>
</clipPath>
</defs>
</svg>
