<svg width="16" height="16" viewBox="0 0 16 16" fill="none" xmlns="http://www.w3.org/2000/svg">
<g clip-path="url(#clip0_3320_14357)">
<rect width="16" height="16" fill="#E5E7EB"/>
<rect opacity="0.6" x="1.99988" y="1.99988" width="11.9992" height="11.9992" rx="1.33325" stroke="#A5A5A5" stroke-width="0.0266649"/>
<rect opacity="0.6" x="1.33325" y="1.33325" width="13.3325" height="13.3325" rx="6.66623" stroke="#A5A5A5" stroke-width="0.0266649"/>
<rect opacity="0.6" x="4.66638" y="4.66638" width="6.66623" height="6.66623" rx="3.33312" stroke="#A5A5A5" stroke-width="0.0266649"/>
<rect opacity="0.6" x="1.33325" y="2.6665" width="13.3325" height="10.666" rx="1.33325" stroke="#A5A5A5" stroke-width="0.0266649"/>
<rect opacity="0.6" x="2.6665" y="14.6658" width="13.3325" height="10.666" rx="1.33325" transform="rotate(-90 2.6665 14.6658)" stroke="#A5A5A5" stroke-width="0.0266649"/>
<path opacity="0.6" d="M15.999 0L0 15.999" stroke="#A5A5A5" stroke-width="0.0266649"/>
<path opacity="0.6" d="M6.4373e-05 0L15.999 15.999" stroke="#A5A5A5" stroke-width="0.0266649"/>
<path d="M9.66654 6.66593C9.37988 5.70193 8.38988 4.99927 7.33321 4.99927C6.71437 4.99927 6.12088 5.2451 5.6833 5.68269C5.24571 6.12027 4.99988 6.71376 4.99988 7.3326C4.99988 8.50793 5.86921 9.50393 6.99988 9.66593" stroke="#374151" stroke-linecap="round" stroke-linejoin="round"/>
<path d="M13.2999 6.66598C12.9799 3.68864 10.3733 1.33264 7.33325 1.33264C4.08659 1.33264 1.33325 4.02131 1.33325 7.28331C1.33325 10.6086 4.13592 12.9073 6.71525 14.5033C6.90392 14.6095 7.11676 14.6653 7.33325 14.6653C7.54975 14.6653 7.76259 14.6095 7.95125 14.5033C8.12103 14.3998 8.29147 14.2929 8.46259 14.1826" stroke="#374151" stroke-linecap="round" stroke-linejoin="round"/>
<path d="M11.6666 10.9993H11.6726M11.6666 7.99927C13.29 7.99927 14.6666 9.34393 14.6666 10.9746C14.6666 12.6313 13.268 13.7946 11.976 14.5846C11.8817 14.638 11.7753 14.6661 11.667 14.6661C11.5586 14.6661 11.4522 14.638 11.358 14.5846C10.068 13.7866 8.66663 12.6373 8.66663 10.9746C8.66663 9.34327 10.0433 7.99927 11.6666 7.99927Z" stroke="#374151" stroke-linecap="round" stroke-linejoin="round"/>
</g>
<defs>
<clipPath id="clip0_3320_14357">
<rect width="16" height="16" fill="white"/>
</clipPath>
</defs>
</svg>
