<svg width="16" height="16" viewBox="0 0 16 16" fill="none" xmlns="http://www.w3.org/2000/svg">
<g clip-path="url(#clip0_3320_14342)">
<rect width="16" height="16" fill="#E5E7EB"/>
<rect opacity="0.6" x="1.99988" y="1.99988" width="11.9992" height="11.9992" rx="1.33325" stroke="#A5A5A5" stroke-width="0.0266649"/>
<rect opacity="0.6" x="1.33325" y="1.33325" width="13.3325" height="13.3325" rx="6.66623" stroke="#A5A5A5" stroke-width="0.0266649"/>
<rect opacity="0.6" x="4.66638" y="4.66638" width="6.66623" height="6.66623" rx="3.33312" stroke="#A5A5A5" stroke-width="0.0266649"/>
<rect opacity="0.6" x="1.33325" y="2.6665" width="13.3325" height="10.666" rx="1.33325" stroke="#A5A5A5" stroke-width="0.0266649"/>
<rect opacity="0.6" x="2.6665" y="14.6658" width="13.3325" height="10.666" rx="1.33325" transform="rotate(-90 2.6665 14.6658)" stroke="#A5A5A5" stroke-width="0.0266649"/>
<path opacity="0.6" d="M15.999 0L0 15.999" stroke="#A5A5A5" stroke-width="0.0266649"/>
<path opacity="0.6" d="M6.4373e-05 0L15.999 15.999" stroke="#A5A5A5" stroke-width="0.0266649"/>
<path d="M8.81814 1.96177L9.99148 4.32777C10.1515 4.6571 10.5781 4.9731 10.9381 5.0331L13.0641 5.38977C14.4241 5.61843 14.7441 6.6131 13.7641 7.59443L12.1108 9.2611C11.8308 9.5431 11.6775 10.0878 11.7641 10.4778L12.2375 12.5411C12.6108 14.1744 11.7508 14.8058 10.3175 13.9524L8.32415 12.7624C7.96415 12.5478 7.37081 12.5478 7.00414 12.7624L5.01215 13.9524C3.58548 14.8058 2.71881 14.1671 3.09214 12.5411L3.56548 10.4778C3.65214 10.0878 3.49881 9.5431 3.21881 9.2611L1.56548 7.59443C0.592811 6.61243 0.906145 5.61843 2.26548 5.38977L4.39214 5.0331C4.74548 4.9731 5.17214 4.6571 5.33214 4.32777L6.50548 1.96177C7.14548 0.678434 8.18548 0.678434 8.81881 1.96177" fill="#6EE7B7"/>
</g>
<defs>
<clipPath id="clip0_3320_14342">
<rect width="16" height="16" fill="white"/>
</clipPath>
</defs>
</svg>
