<svg width="24" height="24" viewBox="0 0 24 24" fill="none" xmlns="http://www.w3.org/2000/svg">
<g clip-path="url(#clip0_3320_22052)">
<rect width="24.0016" height="24.0016" transform="translate(0 0.00292969)" fill="#E5E7EB"/>
<rect opacity="0.6" x="3" y="3.00293" width="18" height="18" rx="2" stroke="#A5A5A5" stroke-width="0.04"/>
<rect opacity="0.6" x="2" y="2.00293" width="20" height="20" rx="10" stroke="#A5A5A5" stroke-width="0.04"/>
<rect opacity="0.6" x="7" y="7.00293" width="10" height="10" rx="5" stroke="#A5A5A5" stroke-width="0.04"/>
<rect opacity="0.6" x="2" y="4.00293" width="20" height="16" rx="2" stroke="#A5A5A5" stroke-width="0.04"/>
<rect opacity="0.6" x="4" y="22.0029" width="20" height="16" rx="2" transform="rotate(-90 4 22.0029)" stroke="#A5A5A5" stroke-width="0.04"/>
<path opacity="0.6" d="M24 0.00292969L0 24.0029" stroke="#A5A5A5" stroke-width="0.04"/>
<path opacity="0.6" d="M0 0.00292969L24 24.0029" stroke="#A5A5A5" stroke-width="0.04"/>
<path d="M3.99854 17.9829V9.71193C3.99854 6.07793 3.99854 4.26193 5.17054 3.13193C6.34254 2.00193 8.22754 2.00293 11.9985 2.00293C15.7695 2.00293 17.6555 2.00293 18.8265 3.13193C19.9985 4.25993 19.9985 6.07693 19.9985 9.71093V17.9839C19.9985 20.2899 19.9985 21.4429 19.2255 21.8549C17.7285 22.6549 14.9215 19.9879 13.5885 19.1849C12.8155 18.7199 12.4285 18.4869 11.9985 18.4869C11.5685 18.4869 11.1815 18.7199 10.4085 19.1849C9.07554 19.9879 6.26853 22.6549 4.77153 21.8549C3.99853 21.4429 3.99854 20.2899 3.99854 17.9839" stroke="#D1D5DB" stroke-width="1.5" stroke-linecap="round" stroke-linejoin="round"/>
</g>
<defs>
<clipPath id="clip0_3320_22052">
<rect width="24.0016" height="24.0016" fill="white" transform="translate(0 0.00292969)"/>
</clipPath>
</defs>
</svg>
