<svg width="25" height="24" viewBox="0 0 25 24" fill="none" xmlns="http://www.w3.org/2000/svg">
<g clip-path="url(#clip0_3314_6406)">
<rect width="24.0016" height="24.0016" transform="translate(0.0341797)" fill="#E5E7EB"/>
<rect opacity="0.6" x="3.03418" y="3" width="18" height="18" rx="2" stroke="#A5A5A5" stroke-width="0.04"/>
<rect opacity="0.6" x="2.03418" y="2" width="20" height="20" rx="10" stroke="#A5A5A5" stroke-width="0.04"/>
<rect opacity="0.6" x="7.03418" y="7" width="10" height="10" rx="5" stroke="#A5A5A5" stroke-width="0.04"/>
<rect opacity="0.6" x="2.03418" y="4" width="20" height="16" rx="2" stroke="#A5A5A5" stroke-width="0.04"/>
<rect opacity="0.6" x="4.03418" y="22" width="20" height="16" rx="2" transform="rotate(-90 4.03418 22)" stroke="#A5A5A5" stroke-width="0.04"/>
<path opacity="0.6" d="M24.0342 0L0.0341797 24" stroke="#A5A5A5" stroke-width="0.04"/>
<path opacity="0.6" d="M0.0341797 0L24.0342 24" stroke="#A5A5A5" stroke-width="0.04"/>
<path d="M15.0342 17V18C15.0342 18.7956 14.7181 19.5587 14.1555 20.1213C13.5929 20.6839 12.8298 21 12.0342 21C11.2385 21 10.4755 20.6839 9.91286 20.1213C9.35025 19.5587 9.03418 18.7956 9.03418 18V17M15.0342 17H9.03418M15.0342 17H18.6242C19.0072 17 19.1992 17 19.3542 16.948C19.5 16.8986 19.6324 16.8163 19.7412 16.7074C19.8499 16.5984 19.9321 16.4659 19.9812 16.32C20.0342 16.164 20.0342 15.972 20.0342 15.586C20.0342 15.417 20.0342 15.333 20.0202 15.252C19.9955 15.1006 19.9363 14.9569 19.8472 14.832C19.7992 14.765 19.7392 14.705 19.6202 14.586L19.2302 14.196C19.168 14.1337 19.1187 14.0598 19.085 13.9785C19.0514 13.8972 19.0341 13.81 19.0342 13.722V10C19.0342 9.08075 18.8531 8.1705 18.5013 7.32122C18.1496 6.47194 17.6339 5.70026 16.9839 5.05025C16.3339 4.40024 15.5622 3.88463 14.713 3.53284C13.8637 3.18106 12.9534 3 12.0342 3C11.1149 3 10.2047 3.18106 9.3554 3.53284C8.50612 3.88463 7.73444 4.40024 7.08443 5.05025C6.43442 5.70026 5.91881 6.47194 5.56702 7.32122C5.21524 8.1705 5.03418 9.08075 5.03418 10V13.722C5.03424 13.81 5.01696 13.8972 4.98333 13.9785C4.9497 14.0598 4.90038 14.1337 4.83818 14.196L4.44818 14.586C4.32818 14.706 4.26918 14.765 4.22218 14.831C4.13221 14.956 4.07232 15.1001 4.04718 15.252C4.03418 15.332 4.03418 15.417 4.03418 15.586C4.03418 15.972 4.03418 16.164 4.08618 16.32C4.13551 16.4661 4.21796 16.5988 4.32707 16.7077C4.43619 16.8167 4.56902 16.8989 4.71518 16.948C4.87018 17 5.06118 17 5.44418 17H9.03418" stroke="#1F2937" stroke-width="1.5" stroke-linecap="round" stroke-linejoin="round"/>
</g>
<defs>
<clipPath id="clip0_3314_6406">
<rect width="24.0016" height="24.0016" fill="white" transform="translate(0.0341797)"/>
</clipPath>
</defs>
</svg>
