<svg width="24" height="24" viewBox="0 0 24 24" fill="none" xmlns="http://www.w3.org/2000/svg">
<g clip-path="url(#clip0_3354_1505)">
<rect width="24.0016" height="24.0016" fill="#E5E7EB"/>
<rect opacity="0.6" x="3" y="3" width="18" height="18" rx="2" stroke="#A5A5A5" stroke-width="0.04"/>
<rect opacity="0.6" x="2" y="2" width="20" height="20" rx="10" stroke="#A5A5A5" stroke-width="0.04"/>
<rect opacity="0.6" x="7" y="7" width="10" height="10" rx="5" stroke="#A5A5A5" stroke-width="0.04"/>
<rect opacity="0.6" x="2" y="4" width="20" height="16" rx="2" stroke="#A5A5A5" stroke-width="0.04"/>
<rect opacity="0.6" x="4" y="22" width="20" height="16" rx="2" transform="rotate(-90 4 22)" stroke="#A5A5A5" stroke-width="0.04"/>
<path opacity="0.6" d="M24 0L0 24" stroke="#A5A5A5" stroke-width="0.04"/>
<path opacity="0.6" d="M0 0L24 24" stroke="#A5A5A5" stroke-width="0.04"/>
<path d="M17 2V4M12 2V4M7 2V4M8 15H12M8 10H16M3.5 10C3.5 6.7 3.5 5.05 4.525 4.025C5.55 3 7.2 3 10.5 3H13.5C16.8 3 18.45 3 19.475 4.025C20.5 5.05 20.5 6.7 20.5 10V15C20.5 18.3 20.5 19.95 19.475 20.975C18.45 22 16.8 22 13.5 22H10.5C7.2 22 5.55 22 4.525 20.975C3.5 19.95 3.5 18.3 3.5 15V10Z" stroke="#9CA3AF" stroke-width="1.5" stroke-linecap="round" stroke-linejoin="round"/>
</g>
<defs>
<clipPath id="clip0_3354_1505">
<rect width="24.0016" height="24.0016" fill="white"/>
</clipPath>
</defs>
</svg>
